<svg xmlns="http://www.w3.org/2000/svg" width="310" height="32" viewBox="0 0 310 32"><defs><clipPath id="pekra"><path d="M.346.23h15.34v22.492H.346z"/></clipPath><clipPath id="pekrb"><path d="M137.84.23h18.457v22.492h-18.458z"/></clipPath><clipPath id="pekrc"><path d="M295.897 6.18h13.747v27.496h-13.747z"/></clipPath></defs><g><g><g><g/><g clip-path="url(#pekra)"><path fill="#fff" d="M.705 22.723a.36.36 0 0 1-.36-.354L.54 11.316.346.584C.346.394.51.23.705.23h14.363c.195 0 .36.163.36.354v2.379a.36.36 0 0 1-.36.353H4.458l-.163 5.945h9.934c.194 0 .356.16.356.354v2.376a.358.358 0 0 1-.356.353H4.295l.162 7.295H15.33a.36.36 0 0 1 .356.351v2.38a.36.36 0 0 1-.356.353z"/></g></g><g><path fill="#fff" d="M29.512 22.723a.358.358 0 0 1-.356-.354l.064-1.896c-1.133 1.607-2.878 2.571-5.112 2.571-4.595 0-7.055-3.729-7.055-8.548 0-4.788 2.655-8.643 7.12-8.643 2.169 0 3.882.836 5.015 2.38l-.065-7.65c0-.192.162-.353.356-.353h3.27c.192 0 .354.16.354.354l-.127 10.346.127 11.44a.357.357 0 0 1-.354.353zm-.194-8.128c.032-3.858-1.422-6.01-4.08-6.041-2.843-.065-4.203 2.15-4.203 5.717 0 3.825 1.39 6.073 4.141 6.073 2.588 0 4.11-1.926 4.142-5.75z"/></g><g><path fill="#fff" d="M39.721 16.554l.13 5.816a.358.358 0 0 1-.357.354H36.13a.358.358 0 0 1-.356-.354l.13-5.816-.065-10.025c0-.192.162-.353.353-.353H39.3c.194 0 .356.16.356.353l-.1 2.058c1.104-1.672 2.658-2.797 4.986-2.797 2.329 0 4.012 1.029 4.757 3.28 1.327-2.38 3.008-3.28 5.177-3.28 3.3 0 5.242 2.025 5.242 6.491v4.273l.095 5.816c0 .193-.16.354-.357.354H56.16a.358.358 0 0 1-.357-.354l.13-5.816v-4.176c0-2.508-1.071-3.569-2.72-3.569-1.489 0-2.978 1.543-3.461 4.34v3.405l.13 5.816a.358.358 0 0 1-.357.354h-3.334a.356.356 0 0 1-.354-.354l.127-5.816v-4.176c0-2.508-1.033-3.569-2.684-3.569-1.651 0-3.235 1.8-3.559 5.077z"/></g><g><path fill="#fff" d="M70.11 23.11c-5.242 0-8.253-3.376-8.253-8.613 0-5.238 3.01-8.707 8.253-8.707 5.242 0 8.185 3.373 8.185 8.61 0 5.27-2.943 8.71-8.185 8.71m0-2.733c2.816 0 4.173-1.929 4.173-5.88 0-3.92-1.392-5.977-4.206-5.977-2.846.032-4.238 2.09-4.238 6.009 0 3.89 1.422 5.848 4.27 5.848"/></g><g><path fill="#fff" d="M80.874 22.721a.358.358 0 0 1-.356-.353l.162-7.421-.098-8.418c0-.195.162-.356.354-.356h3.075c.195 0 .357.16.357.356l-.098 2.055c1.069-1.543 2.976-2.794 5.47-2.794 3.46 0 5.662 2.312 5.662 6.489v3.407l.097 6.682a.358.358 0 0 1-.356.353h-3.235a.358.358 0 0 1-.356-.353l.097-6.682v-3.311c0-2.344-1.295-3.566-3.075-3.566-1.94 0-3.786 1.637-4.11 5.077v1.8l.065 6.682a.357.357 0 0 1-.353.353z"/></g><g><path fill="#fff" d="M110.036 22.723a.358.358 0 0 1-.356-.354l.065-1.896c-1.133 1.607-2.879 2.571-5.113 2.571-4.594 0-7.055-3.729-7.055-8.548 0-4.788 2.655-8.643 7.12-8.643 2.17 0 3.882.836 5.015 2.38l-.064-7.65c0-.192.162-.353.356-.353h3.27c.191 0 .353.16.353.354L113.5 10.93l.127 11.44a.357.357 0 0 1-.353.353zm-.194-8.128c.032-3.858-1.422-6.01-4.08-6.041-2.843-.065-4.203 2.15-4.203 5.717 0 3.825 1.39 6.073 4.142 6.073 2.587 0 4.109-1.926 4.141-5.75z"/></g><g><path fill="#fff" d="M123.626 23.117c-4.53 0-7.667-1.929-7.861-5.687 0-.193.162-.354.356-.354h3.073c.197 0 .356.16.356.354.162 2.154 1.551 3.118 4.141 3.118 2.17 0 3.53-.868 3.53-2.411 0-3.665-11.1-.418-11.1-7.23 0-3.342 2.72-5.107 6.958-5.107 4.076 0 6.955 1.669 7.246 5.074.033.193-.13.356-.323.356h-2.914c-.224 0-.386-.13-.418-.356-.26-1.637-1.522-2.57-3.659-2.57-1.94 0-3.17.708-3.17 2.313 0 3.568 11.1.193 11.1 7.198 0 3.373-3.173 5.302-7.315 5.302"/></g><g><g/><g clip-path="url(#pekrb)"><path fill="#ebb221" d="M154.898 22.723c-.165 0-.324-.129-.392-.257l-2.587-7.263h-9.802l-2.59 7.263c-.064.128-.226.257-.388.257h-1.1a.203.203 0 0 1-.192-.257L145.935.49c.065-.129.227-.26.386-.26h1.49c.164 0 .323.131.39.26l8.089 21.976c.03.128-.033.257-.197.257zm-3.494-8.932l-4.368-12.243-4.403 12.243z"/></g></g><g><path fill="#ebb221" d="M164.748 23.083c-4.786 0-7.311-3.405-7.311-8.578 0-5.174 2.525-8.675 7.344-8.675 4.011 0 6.342 2.28 6.698 5.688.033.16-.097.289-.261.289h-.904c-.162 0-.291-.129-.324-.29-.485-2.957-2.49-4.401-5.21-4.401-3.882 0-5.662 2.89-5.662 7.389 0 4.498 1.78 7.295 5.63 7.324 3.043 0 5.115-1.765 5.436-4.916.033-.16.162-.29.324-.29h.907c.159 0 .291.13.256.29-.324 3.569-2.684 6.17-6.923 6.17"/></g><g><path fill="#ebb221" d="M180.962 23.083c-4.786 0-7.312-3.405-7.312-8.578 0-5.174 2.526-8.675 7.344-8.675 4.012 0 6.343 2.28 6.7 5.688.032.16-.098.289-.263.289h-.903c-.162 0-.292-.129-.324-.29-.486-2.957-2.49-4.401-5.21-4.401-3.882 0-5.663 2.89-5.663 7.389 0 4.498 1.78 7.295 5.63 7.324 3.044 0 5.116-1.765 5.437-4.916.033-.16.162-.29.324-.29h.906c.16 0 .292.13.257.29-.324 3.569-2.685 6.17-6.923 6.17"/></g><g><path fill="#ebb221" d="M197.315 23.076c-4.786 0-7.44-3.438-7.44-8.614 0-5.17 2.654-8.642 7.44-8.642 4.821 0 7.444 3.472 7.444 8.642 0 5.142-2.623 8.614-7.444 8.614m0-1.254c3.882 0 5.792-2.859 5.792-7.36 0-4.465-1.94-7.388-5.792-7.388-3.818.032-5.76 2.893-5.76 7.388 0 4.501 1.942 7.36 5.76 7.36"/></g><g><path fill="#ebb221" d="M213.019 23.114c-3.364 0-5.436-2.154-5.436-6.684v-3.148l-.065-6.813c0-.158.13-.289.291-.289h1.069a.29.29 0 0 1 .291.29l-.032 6.812v2.987c0 3.987 1.683 5.495 4.206 5.495 2.493 0 4.173-1.862 5.274-4.884v-3.598l-.032-6.813c0-.158.13-.289.291-.289h1.066c.164 0 .294.131.294.29l-.097 6.973.097 8.996c0 .16-.13.29-.294.29h-1.034a.29.29 0 0 1-.29-.29l.064-3.118c-.939 1.864-2.784 3.793-5.663 3.793"/></g><g><path fill="#ebb221" d="M224.161 22.721a.287.287 0 0 1-.289-.289l.098-6.97-.068-9c0-.158.13-.289.294-.289h1.001a.29.29 0 0 1 .292.29l-.065 3.118c.936-1.865 2.816-3.791 5.695-3.791 3.332 0 5.404 2.151 5.404 6.681v3.151l.062 6.81c0 .16-.127.29-.289.29h-1.068a.29.29 0 0 1-.291-.29l.032-6.81v-2.99c0-3.983-1.68-5.494-4.206-5.494-2.493 0-4.176 1.864-5.274 4.883v3.601l.032 6.81c0 .16-.13.29-.291.29z"/></g><g><path fill="#ebb221" d="M246.983 22.37c0 .16-.13.32-.288.353-.486.128-1.134.257-1.716.257-2.137 0-3.756-1.093-3.756-4.595V7.493h-1.843a.29.29 0 0 1-.29-.29v-.74c0-.16.129-.289.29-.289h1.843l-.03-3.855c0-.16.127-.289.292-.289h1.066a.29.29 0 0 1 .29.29l-.031 3.854h3.914a.29.29 0 0 1 .294.29v.74c0 .16-.13.289-.294.289h-3.914v10.892c0 2.473.647 3.213 2.298 3.213.518 0 1.163-.065 1.587-.161a.24.24 0 0 1 .288.225z"/></g><g><path fill="#ebb221" d="M260.41 22.73a.287.287 0 0 1-.289-.29l.062-3.083c-1.036 2.248-2.911 3.662-5.598 3.662-4.336 0-6.664-3.726-6.664-8.549 0-4.755 2.36-8.61 6.664-8.61 2.59 0 4.532 1.222 5.598 3.536l-.062-2.925c0-.16.127-.29.289-.29h1.036a.29.29 0 0 1 .291.29l-.065 7.68.065 8.29c0 .16-.13.289-.291.289zm-.162-8.094c.032-4.723-1.94-7.522-5.304-7.522-3.756 0-5.404 3.182-5.404 7.203 0 4.147 1.648 7.458 5.369 7.458 3.202 0 5.306-2.41 5.339-7.139z"/></g><g><path fill="#ebb221" d="M265.662 22.721a.287.287 0 0 1-.289-.289l.097-6.97-.067-9c0-.158.13-.289.294-.289h1.001a.29.29 0 0 1 .291.29l-.064 3.118c.936-1.865 2.816-3.791 5.695-3.791 3.332 0 5.404 2.151 5.404 6.681v3.151l.062 6.81c0 .16-.127.29-.289.29h-1.068a.29.29 0 0 1-.291-.29l.032-6.81v-2.99c0-3.983-1.68-5.494-4.206-5.494-2.493 0-4.177 1.864-5.275 4.883v3.601l.033 6.81c0 .16-.13.29-.292.29z"/></g><g><path fill="#ebb221" d="M288.163 23.083c-4.789 0-7.311-3.405-7.311-8.578 0-5.174 2.522-8.675 7.344-8.675 4.011 0 6.342 2.28 6.699 5.688.032.16-.098.289-.262.289h-.904c-.162 0-.291-.129-.324-.29-.485-2.957-2.49-4.401-5.21-4.401-3.882 0-5.662 2.89-5.662 7.389 0 4.498 1.78 7.295 5.63 7.324 3.043 0 5.115-1.765 5.437-4.916.032-.16.161-.29.323-.29h.907c.159 0 .291.13.256.29-.32 3.569-2.684 6.17-6.923 6.17"/></g><g><g/><g clip-path="url(#pekrc)"><path fill="#ebb221" d="M300.802 31.31c-.065.128-.227.256-.391.256h-.937c-.13 0-.259-.128-.191-.257l3.093-8.583-6.472-16.289a.206.206 0 0 1 .194-.257h1.23c.162 0 .324.129.389.257l5.5 14.04 4.692-14.01c.062-.158.227-.287.386-.287h1.133c.162 0 .26.129.197.257z"/></g></g><g><g/></g></g></g></svg>